<svg id="Camada_1" data-name="Camada 1" xmlns="http://www.w3.org/2000/svg" viewBox="0 0 411.41 396.89"><defs><style>.cls-1{fill:#efefef;isolation:isolate;}</style></defs><title>bolha</title><path class="cls-1" d="M411.4,187.67c.57,25-31.17,29.8-36,64-4.86,34.45,27.66,56.67,18,70-9.33,12.86-38.38-8.22-65,6-31.76,17-24.52,65.19-44,69-23.4,4.58-37.25-64.39-80-71-38.77-6-61.7,45.43-91,35-26.53-9.44-14.88-54.14-53-83-28.13-21.3-56-13.26-60-28-5.64-20.82,50.23-36,55-77,3.2-27.52-20.45-33.92-25-72-3.85-32.22,8-74.93,35-91s50.29,17.76,110,20c72.21,2.71,105.38-44.31,133-25,25.16,17.58-2.12,56.73,27,105C363.27,155.87,410.7,157.17,411.4,187.67Z" transform="translate(0 0)"/></svg>