<svg id="Camada_1" data-name="Camada 1" xmlns="http://www.w3.org/2000/svg" viewBox="0 0 1923 519"><defs><style>.cls-1{fill:#c1baaa;}.cls-1,.cls-3,.cls-4{isolation:isolate;}.cls-2,.cls-3,.cls-4{fill:#fff;}.cls-3{opacity:0.47;}.cls-4{opacity:0.49;}</style></defs><title>footer1</title><path class="cls-1" d="M1922.59,519H0V66.47H1922.59Z"/><path class="cls-2" d="M1921,240.41C1762.05,151,1566.51,77.43,1342,75c-209.15-2.31-216.33,59.32-457,56.57-288.27-3.3-387.5-92.68-596-26.87C157.9,146,59.18,224.91,0,280V0H1923Z"/><path class="cls-3" d="M1923,282.83c-86.41,5.92-222.19,6.92-386-29.7-183.51-41-216.17-87.65-366-107.48C984.68,121,988.44,186.95,715,196.57c-222.79,7.84-282-33.93-469,4.24-104.78,21.39-189.42,55.56-246,82V70.71H1923Z"/><path class="cls-4" d="M1923,233.34c-60.45-23.24-138.58-44.84-235.15-52.34-207.16-16.06-319.63,46.73-555,39.6C1009.27,216.86,959.62,197.09,857,181,688.11,154.57,420.41,145.09,1,233.34V59.4H1923Z"/></svg>