<svg id="Camada_1" data-name="Camada 1" xmlns="http://www.w3.org/2000/svg" xmlns:xlink="http://www.w3.org/1999/xlink" viewBox="0 0 1923 519"><defs><style>.cls-1{opacity:0.64;fill:url(#Gradiente_sem_nome_86);}.cls-2,.cls-3,.cls-4{fill:#fff;}.cls-3{opacity:0.47;}.cls-4{opacity:0.49;}</style><linearGradient id="Gradiente_sem_nome_86" x1="-2" y1="93.73" x2="1920.59" y2="93.73" gradientUnits="userSpaceOnUse"><stop offset="0" stop-color="#605c54"/><stop offset="1" stop-color="#ffffc9"/></linearGradient></defs><title>footer</title><path class="cls-1" d="M1920.59,320H-2V-132.53H1920.59Z" transform="translate(2 199)"/><path class="cls-2" d="M1919,41.41C1760.05-48,1564.51-121.57,1340-124c-209.15-2.31-216.33,59.32-457,56.57-288.27-3.3-387.5-92.68-596-26.87C155.9-53,57.18,25.91-2,81V-199H1921Z" transform="translate(2 199)"/><path class="cls-3" d="M1921,83.83c-86.41,5.92-222.19,6.92-386-29.7-183.51-41-216.17-87.65-366-107.48C982.68-78,986.44-12.05,713-2.43,490.21,5.41,431-36.36,244,1.81,139.22,23.2,54.58,57.37-2,83.83V-128.29H1921Z" transform="translate(2 199)"/><path class="cls-4" d="M1921,34.34C1860.55,11.1,1782.42-10.5,1685.85-18c-207.16-16.06-319.63,46.73-555,39.6C1007.27,17.86,957.62-1.91,855-18,686.11-44.43,418.41-53.91-1,34.34V-139.6H1921Z" transform="translate(2 199)"/></svg>