<svg id="Camada_1" data-name="Camada 1" xmlns="http://www.w3.org/2000/svg" viewBox="0 0 1922 471.18"><defs><style>.cls-1,.cls-2,.cls-3{fill:#fff;}.cls-2{opacity:0.47;}.cls-3{opacity:0.49;}</style></defs><title>wave3</title><path class="cls-1" d="M0-67C367,69.49,520.22,104.25,583.3,102.61,602,102.13,703,96.11,703,96.07h0c105-15.1,152.59-50.21,335.43-46.82,273.8,5.08,422,68.29,592.8,31.05C1706.7,63.84,1809.86,22.17,1921-92q-.5,139.5-1,279L0,173Z" transform="translate(1 126)"/><path class="cls-2" d="M.09-67c86.44-5.47,222.22-5.78,385.84,31.67,183.29,42,215.71,88.76,365.45,109.35,186.19,25.6,182.77-40.35,456.25-48.58,168.91-5.08,243.66,17.87,351.51,13.06,34.72-1.55,58.71-3.42,82.45-7.44,0,0,17.73-3.1,35.06-7.46C1718.18,13.21,1811.2-38.43,1921-126q-.5,140.5-1,281L-1,145.16Z" transform="translate(1 126)"/><path class="cls-3" d="M1,0C101.71,36.88,184.25,47.48,238.14,50.8,431.51,62.72,597.75,3.9,794,9.09c35.34.94,64.64,3.2,90.88,6.32C982,27,1051.68,43.27,1070.61,47.64,1194.77,76.31,1315,28.22,1460.76,0c104.91-20.31,259.39-37.35,459.92-14V166L0,173Z" transform="translate(1 126)"/><rect class="cls-1" y="240.82" width="1922" height="230.36"/><rect class="cls-1" x="1921" y="126" width="1" height="115"/></svg>